<svg width="898" height="441" viewBox="0 0 898 441" fill="none" xmlns="http://www.w3.org/2000/svg">
<g clip-path="url(#clip0_31_5)">
<path d="M724.45 63.61H855.37V10.23H703.74L703.04 9.53003L702.34 10.23H700.92L531.55 179.61L362.18 10.22H360.75L360.05 9.53003L359.36 10.22H0.7V185.3H54.09V63.62H338.64L489.14 214.15L493.03 218.11L337.92 373.21H53.39V250.83H0V426.58H361.48L382.79 405.27L531.55 256.51L680.3 405.27L701.6 426.58H855.37V373.2H725.16L570.06 218.11L573.95 214.15L724.45 63.61Z" fill="#FF1010"/>
<path d="M96.07 204.43C95.44 204.43 94.93 205.14 94.93 206.01V251.56C94.93 252.44 95.44 253.14 96.07 253.14H105.17C105.8 253.14 106.31 252.43 106.31 251.56V221.27L137.67 252.63L138.07 253.03C138.2 253.11 138.35 253.15 138.51 253.15H147.61C148.24 253.15 148.75 252.44 148.75 251.57V247.62L105.57 204.44H96.08L96.07 204.43Z" fill="#F2BE22"/>
<path d="M149.12 243.89V205.12C149.12 204.24 148.61 203.53 147.98 203.53H138.88C138.25 203.53 137.74 204.24 137.74 205.12V234.86C137.74 235.17 137.86 235.47 138.08 235.69L147.12 244.73C147.86 245.47 149.12 244.95 149.12 243.9V243.89Z" fill="#F2BE22"/>
<path d="M473.59 252.94H482.69C483.32 252.94 483.83 252.23 483.83 251.36V205.81C483.83 204.93 483.32 204.22 482.69 204.22H474C473.49 204.22 472.99 204.42 472.63 204.79L453.46 223.97C452.91 224.52 452.03 224.52 451.48 223.97L432.3 204.79C431.94 204.43 431.44 204.22 430.93 204.22H422.24C421.61 204.22 421.1 204.93 421.1 205.81V251.36C421.1 252.24 421.61 252.94 422.24 252.94H431.34C431.97 252.94 432.48 252.23 432.48 251.36V222.67C432.48 222.08 433.19 221.78 433.61 222.2L444.42 233.01L451.49 240.08C452.03 240.62 452.9 240.62 453.44 240.08L460.51 233.01L471.31 222.2C471.73 221.78 472.44 222.08 472.44 222.67V251.36C472.44 252.24 472.95 252.94 473.58 252.94H473.59Z" fill="#F2BE22"/>
<path d="M238.97 204.43C238.34 204.43 237.83 205.14 237.83 206.01V251.56C237.83 252.44 238.34 253.14 238.97 253.14H248.07C248.7 253.14 249.21 252.43 249.21 251.56V221.27L280.57 252.63L280.97 253.03C281.1 253.11 281.25 253.15 281.41 253.15H290.51C291.14 253.15 291.65 252.44 291.65 251.57V247.62L248.47 204.44H238.98L238.97 204.43Z" fill="#F2BE22"/>
<path d="M292.02 243.89V205.12C292.02 204.24 291.51 203.53 290.88 203.53H281.78C281.15 203.53 280.64 204.24 280.64 205.12V234.86C280.64 235.17 280.76 235.47 280.98 235.69L290.02 244.73C290.76 245.47 292.02 244.95 292.02 243.9V243.89Z" fill="#F2BE22"/>
<path d="M359.66 202.84H298.05C296.66 202.84 295.53 203.35 295.53 203.98V213.08C295.53 213.71 296.65 214.22 298.05 214.22H345.3C345.79 214.22 346.27 214.1 346.61 213.88L360.97 204.84C362.14 204.1 361.31 202.84 359.66 202.84Z" fill="#F2BE22"/>
<path d="M318.16 215.08C317.43 215.08 316.82 215.86 316.82 216.83V249.64C316.82 249.98 316.96 250.31 317.22 250.55L327.83 260.52C328.69 261.33 330.17 260.76 330.17 259.61V216.83C330.17 215.86 329.57 215.08 328.83 215.08H318.15H318.16Z" fill="#F2BE22"/>
<path d="M43.16 223.1L48.96 216.21C49.18 215.95 49.5 215.8 49.83 215.8H86.56C87.19 215.8 87.7 215.29 87.7 214.66V205.56C87.7 204.93 87.19 204.42 86.56 204.42H44.53C44.2 204.42 43.88 204.57 43.66 204.82L3.83 251.26C3.2 252 3.72 253.14 4.7 253.14H17.34C17.68 253.14 18 252.99 18.21 252.73L30.31 238.36L33.59 234.47L39.89 226.98L43.17 223.09L43.16 223.1Z" fill="#F2BE22"/>
<path d="M86.57 218.05H77.47C76.8404 218.05 76.33 218.56 76.33 219.19V252C76.33 252.63 76.8404 253.14 77.47 253.14H86.57C87.1996 253.14 87.71 252.63 87.71 252V219.19C87.71 218.56 87.1996 218.05 86.57 218.05Z" fill="#F2BE22"/>
<path d="M73.81 236.09V226.99C73.81 226.36 73.3 225.85 72.67 225.85H44.08C43.74 225.85 43.42 226 43.21 226.26L40.28 229.75L35.56 235.36C34.94 236.1 35.46 237.23 36.43 237.23H72.68C73.31 237.23 73.82 236.72 73.82 236.09H73.81Z" fill="#F2BE22"/>
<path d="M234.33 205.57C234.33 204.94 233.82 204.43 233.19 204.43H191.16C190.83 204.43 190.51 204.58 190.29 204.83L150.45 251.27C149.82 252.01 150.34 253.15 151.32 253.15H163.96C164.3 253.15 164.62 253 164.83 252.74L176.93 238.37L180.21 234.48L186.51 226.99L189.79 223.1L195.59 216.21C195.81 215.95 196.13 215.8 196.46 215.8H233.19C233.82 215.8 234.33 215.29 234.33 214.66V205.56V205.57Z" fill="#F2BE22"/>
<path d="M233.19 218.05H224.09C223.46 218.05 222.95 218.56 222.95 219.19V252C222.95 252.63 223.46 253.14 224.09 253.14H233.19C233.82 253.14 234.33 252.63 234.33 252V219.19C234.33 218.56 233.82 218.05 233.19 218.05Z" fill="#F2BE22"/>
<path d="M190.7 225.85C190.36 225.85 190.04 226 189.83 226.26L186.9 229.75L182.18 235.36C181.56 236.1 182.08 237.23 183.05 237.23H219.3C219.93 237.23 220.44 236.72 220.44 236.09V226.99C220.44 226.36 219.93 225.85 219.3 225.85H190.71H190.7Z" fill="#F2BE22"/>
<path d="M417.09 205.57C417.09 204.94 416.58 204.43 415.95 204.43H373.92C373.59 204.43 373.27 204.58 373.05 204.83L333.21 251.27C332.58 252.01 333.1 253.15 334.08 253.15H346.72C347.06 253.15 347.38 253 347.59 252.74L359.69 238.37L362.97 234.48L369.27 226.99L372.55 223.1L378.35 216.21C378.57 215.95 378.89 215.8 379.22 215.8H415.95C416.58 215.8 417.09 215.29 417.09 214.66V205.56V205.57Z" fill="#F2BE22"/>
<path d="M415.95 218.05H406.85C406.22 218.05 405.71 218.56 405.71 219.19V252C405.71 252.63 406.22 253.14 406.85 253.14H415.95C416.58 253.14 417.09 252.63 417.09 252V219.19C417.09 218.56 416.58 218.05 415.95 218.05Z" fill="#F2BE22"/>
<path d="M373.46 225.85C373.12 225.85 372.8 226 372.59 226.26L369.66 229.75L364.94 235.36C364.32 236.1 364.84 237.23 365.81 237.23H402.06C402.69 237.23 403.2 236.72 403.2 236.09V226.99C403.2 226.36 402.69 225.85 402.06 225.85H373.47H373.46Z" fill="#F2BE22"/>
<path d="M767.5 77.43H898.42V24.05H746.78L746.08 23.35L745.38 24.05H743.96L574.59 193.43L405.22 24.04H403.79L403.1 23.35L402.4 24.04H43.74V199.12H97.13V77.43H381.68L532.19 227.97L536.08 231.93L380.97 387.03H96.44V264.64H43.04V440.4H404.53L425.83 419.09L574.59 270.33L723.35 419.09L744.65 440.4H898.42V387.02H768.2L613.11 231.92L617 227.97L767.5 77.43Z" fill="#F2BE22"/>
<path d="M767.5 54.09H898.42V0.7H746.78L746.08 0L745.38 0.7H743.96L574.59 170.09L405.22 0.7H403.79L403.1 0L402.4 0.7H43.74V175.77H97.13V54.09H381.68L532.19 204.62L536.08 208.58L380.97 363.68H96.44V241.3H43.04V417.05H404.53L425.83 395.75L574.59 246.99L723.35 395.74L744.65 417.05H898.42V363.68H768.2L613.11 208.58L617 204.63L767.5 54.09Z" fill="#1812FF"/>
</g>
<defs>
<clipPath id="clip0_31_5">
<rect width="898.42" height="440.4" fill="white"/>
</clipPath>
</defs>
</svg>
