<svg width="138" height="129" viewBox="0 0 138 129" fill="none" xmlns="http://www.w3.org/2000/svg">
<path fill-rule="evenodd" clip-rule="evenodd" d="M10 107L52.2866 64.7131L39.5732 52H58V42H29.5732L19.5732 32H43V22H10L31 1L73.5 43.5L116.066 0.93396L137.279 22.1472L136.5 22.9265V27L133.5 30V34.5L123 45H117.5V49.5L103 64H95.4268L94.7134 64.7134L97 67H114V72H102L106 76H121V81H111L137.066 107.066L115.853 128.279L73.5 85.9265L31.2134 128.213L10 107ZM20 28V23H0V28H20ZM19 43H39V48H19V43ZM30 72V67H10V72H30ZM43 43H55V48H43V43Z" fill="#F2BE22"></path>
</svg>
