<svg width="307" height="37" viewBox="0 0 307 37" fill="none" xmlns="http://www.w3.org/2000/svg">
<g clip-path="url('#clip0_203_109')">
<path d="M92.81 28.5272V31.0424C92.81 31.6048 92.4814 32.0498 92.0846 32.0498H86.2627C86.1635 32.0498 86.0642 32.0251 85.9836 31.9695L85.7294 31.7161L65.6844 11.7359V31.0363C65.6844 31.5987 65.3558 32.0436 64.959 32.0436H59.137C58.734 32.0436 58.4116 31.5925 58.4116 31.0363V2.0209C58.4116 1.46469 58.7402 1.01355 59.137 1.01355H65.207L92.81 28.5272Z" fill="#181A19"></path>
<path d="M93.0518 1.4523V26.1602C93.0518 26.8214 92.2458 27.1552 91.7746 26.6855L85.9961 20.9257C85.8534 20.7835 85.7791 20.5981 85.7791 20.4003V1.4523C85.7791 0.88991 86.1077 0.444946 86.5045 0.444946H92.3264C92.7294 0.444946 93.0518 0.89609 93.0518 1.4523Z" fill="#181A19"></path>
<path d="M306.275 0.883789H300.719C300.391 0.883789 300.074 1.01357 299.845 1.24223L287.593 13.4602C287.246 13.8063 286.676 13.8063 286.329 13.4602L274.071 1.24223C273.842 1.01357 273.525 0.883789 273.197 0.883789H267.641C267.238 0.883789 266.916 1.33493 266.916 1.89114V30.9127C266.916 31.4689 267.245 31.92 267.641 31.92H273.463C273.866 31.92 274.189 31.4689 274.189 30.9127V12.6321C274.189 12.2551 274.648 12.0697 274.914 12.3354L281.821 19.22L286.341 23.7253C286.682 24.0652 287.24 24.0652 287.587 23.7253L292.107 19.22L299.008 12.3354C299.275 12.0697 299.733 12.2551 299.733 12.6321V30.9127C299.733 31.4689 300.062 31.92 300.459 31.92H306.281C306.684 31.92 307.006 31.4689 307.006 30.9127V1.89114C307.006 1.33493 306.678 0.883789 306.281 0.883789H306.275Z" fill="#181A19"></path>
<path d="M184.157 28.5272V31.0424C184.157 31.6048 183.828 32.0498 183.431 32.0498H177.609C177.51 32.0498 177.411 32.0251 177.33 31.9695L177.076 31.7161L157.031 11.7359V31.0363C157.031 31.5987 156.702 32.0436 156.306 32.0436H150.484C150.081 32.0436 149.758 31.5925 149.758 31.0363V2.0209C149.758 1.46469 150.087 1.01355 150.484 1.01355H156.554L184.157 28.5272Z" fill="#181A19"></path>
<path d="M184.392 1.4523V26.1602C184.392 26.8214 183.586 27.1552 183.115 26.6855L177.337 20.9257C177.194 20.7835 177.12 20.5981 177.12 20.4003V1.4523C177.12 0.88991 177.448 0.444946 177.845 0.444946H183.667C184.07 0.444946 184.392 0.89609 184.392 1.4523Z" fill="#181A19"></path>
<path d="M188.242 0H227.626C228.686 0 229.213 0.803407 228.469 1.27309L219.287 7.0329C219.063 7.17505 218.76 7.24921 218.443 7.24921H188.242C187.35 7.24921 186.63 6.92166 186.63 6.52614V0.723067C186.63 0.321363 187.35 0 188.242 0Z" fill="#181A19"></path>
<path d="M208.783 8.91783V36.1781C208.783 36.9135 207.841 37.2781 207.283 36.759L200.5 30.4059C200.333 30.2514 200.246 30.0413 200.246 29.825V8.91783C200.246 8.29982 200.63 7.80542 201.101 7.80542H207.928C208.399 7.80542 208.783 8.29982 208.783 8.91783Z" fill="#181A19"></path>
<path d="M53.7925 1.73662V7.53351C53.7925 7.93521 53.4639 8.26276 53.0609 8.26276H29.581C29.364 8.26276 29.1594 8.35546 29.023 8.52232L25.3153 12.9102L23.2196 15.3884L19.1958 20.1594L17.1001 22.6376L9.36233 31.7964C9.22593 31.9633 9.02132 32.056 8.80432 32.056H0.731733C0.111718 32.056 -0.229289 31.3267 0.17992 30.857L25.6439 1.26693C25.7803 1.10625 25.9849 1.01355 26.1957 1.01355H53.0609C53.4639 1.01355 53.7925 1.34109 53.7925 1.7428V1.73662Z" fill="#181A19"></path>
<path d="M53.0609 9.69653H47.2514C46.8473 9.69653 46.5198 10.023 46.5198 10.4258V31.3267C46.5198 31.7295 46.8473 32.056 47.2514 32.056H53.0609C53.465 32.056 53.7925 31.7295 53.7925 31.3267V10.4258C53.7925 10.023 53.465 9.69653 53.0609 9.69653Z" fill="#181A19"></path>
<path d="M44.9078 15.3883V21.1852C44.9078 21.5869 44.5792 21.9144 44.1762 21.9144H21.0063C20.3863 21.9144 20.0515 21.1914 20.4483 20.7217L23.4677 17.1434L25.3402 14.9186C25.4766 14.7518 25.6812 14.6591 25.8982 14.6591H44.1762C44.5792 14.6591 44.9078 14.9866 44.9078 15.3883Z" fill="#181A19"></path>
<path d="M147.514 1.73662V7.53351C147.514 7.93521 147.185 8.26276 146.782 8.26276H123.302C123.085 8.26276 122.881 8.35546 122.744 8.52232L119.037 12.9102L116.941 15.3884L112.917 20.1594L110.821 22.6376L103.084 31.7964C102.947 31.9633 102.743 32.056 102.526 32.056H94.4468C93.8268 32.056 93.4858 31.3267 93.895 30.857L119.365 1.26693C119.502 1.10625 119.706 1.01355 119.917 1.01355H146.782C147.185 1.01355 147.514 1.34109 147.514 1.7428V1.73662Z" fill="#181A19"></path>
<path d="M146.782 9.69653H140.973C140.569 9.69653 140.241 10.023 140.241 10.4258V31.3267C140.241 31.7295 140.569 32.056 140.973 32.056H146.782C147.186 32.056 147.514 31.7295 147.514 31.3267V10.4258C147.514 10.023 147.186 9.69653 146.782 9.69653Z" fill="#181A19"></path>
<path d="M138.629 15.3883V21.1852C138.629 21.5869 138.3 21.9144 137.897 21.9144H114.727C114.107 21.9144 113.773 21.1914 114.169 20.7217L117.189 17.1434L119.061 14.9186C119.198 14.7518 119.402 14.6591 119.619 14.6591H137.897C138.3 14.6591 138.629 14.9866 138.629 15.3883Z" fill="#181A19"></path>
<path d="M264.337 1.73662V7.53351C264.337 7.93521 264.008 8.26276 263.605 8.26276H240.125C239.908 8.26276 239.704 8.35546 239.567 8.52232L235.86 12.9102L233.764 15.3884L229.74 20.1594L227.644 22.6376L219.907 31.7964C219.77 31.9633 219.566 32.056 219.349 32.056H211.27C210.65 32.056 210.309 31.3267 210.718 30.857L236.188 1.26693C236.325 1.10625 236.529 1.01355 236.74 1.01355H263.605C264.008 1.01355 264.337 1.34109 264.337 1.7428V1.73662Z" fill="#181A19"></path>
<path d="M263.605 9.69653H257.796C257.392 9.69653 257.064 10.023 257.064 10.4258V31.3267C257.064 31.7295 257.392 32.056 257.796 32.056H263.605C264.009 32.056 264.337 31.7295 264.337 31.3267V10.4258C264.337 10.023 264.009 9.69653 263.605 9.69653Z" fill="#181A19"></path>
<path d="M255.452 15.3883V21.1852C255.452 21.5869 255.123 21.9144 254.72 21.9144H231.55C230.93 21.9144 230.596 21.1914 230.992 20.7217L234.012 17.1434L235.884 14.9186C236.021 14.7518 236.225 14.6591 236.442 14.6591H254.72C255.123 14.6591 255.452 14.9866 255.452 15.3883Z" fill="#181A19"></path>
</g>
<defs>
<clipPath id="clip0_203_109">
<rect width="307" height="37" fill="white"></rect>
</clipPath>
</defs>
</svg>
