<svg width="307" height="37" fill="none" xmlns="http://www.w3.org/2000/svg"><g clip-path="url('#clip0_203_21')" fill="#F2BE22"><path d="M92.81 28.527v2.515c0 .563-.329 1.008-.725 1.008h-5.822a.49.49 0 0 1-.28-.08l-.254-.254-20.045-19.98v19.3c0 .563-.328 1.008-.725 1.008h-5.822c-.403 0-.726-.451-.726-1.008V2.021c0-.556.33-1.007.726-1.007h6.07L92.81 28.527ZM93.052 1.452V26.16c0 .661-.806.995-1.278.526l-5.778-5.76a.733.733 0 0 1-.217-.526V1.452c0-.562.329-1.007.725-1.007h5.822c.403 0 .726.451.726 1.007ZM306.275.884h-5.556c-.328 0-.645.13-.874.358L287.593 13.46a.9.9 0 0 1-1.264 0L274.071 1.242a1.24 1.24 0 0 0-.874-.358h-5.556c-.403 0-.725.45-.725 1.007v29.022c0 .556.329 1.007.725 1.007h5.822c.403 0 .726-.451.726-1.007v-18.28c0-.378.459-.563.725-.298l6.907 6.885 4.52 4.505c.341.34.899.34 1.246 0l4.52-4.505 6.901-6.885a.424.424 0 0 1 .725.297v18.28c0 .557.329 1.008.726 1.008h5.822c.403 0 .725-.451.725-1.007V1.89c0-.556-.328-1.007-.725-1.007h-.006ZM184.157 28.527v2.515c0 .563-.329 1.008-.726 1.008h-5.822a.492.492 0 0 1-.279-.08l-.254-.254-20.045-19.98v19.3c0 .563-.329 1.008-.725 1.008h-5.822c-.403 0-.726-.451-.726-1.008V2.021c0-.556.329-1.007.726-1.007h6.07l27.603 27.513ZM184.392 1.452V26.16c0 .661-.806.995-1.277.526l-5.779-5.76a.735.735 0 0 1-.217-.526V1.452c0-.562.329-1.007.726-1.007h5.822c.403 0 .725.451.725 1.007ZM188.243 0h39.383c1.06 0 1.587.803.843 1.273l-9.182 5.76c-.224.142-.527.216-.844.216h-30.2c-.893 0-1.613-.327-1.613-.723V.723c0-.402.72-.723 1.613-.723ZM208.784 8.918v27.26c0 .736-.943 1.1-1.501.581l-6.783-6.353a.787.787 0 0 1-.254-.581V8.918c0-.618.384-1.113.856-1.113h6.826c.471 0 .856.495.856 1.113ZM53.792 1.737v5.797c0 .401-.328.729-.731.729H29.58a.716.716 0 0 0-.558.26l-3.708 4.387-2.096 2.478-4.023 4.771-2.096 2.479-7.738 9.158a.716.716 0 0 1-.558.26H.732c-.62 0-.961-.73-.552-1.199l25.464-29.59a.727.727 0 0 1 .552-.253H53.06c.403 0 .731.327.731.729v-.006Z"/><path d="M53.06 9.697h-5.809a.73.73 0 0 0-.731.729v20.9c0 .404.327.73.731.73h5.81a.73.73 0 0 0 .731-.73v-20.9a.73.73 0 0 0-.731-.73ZM44.908 15.388v5.797c0 .402-.329.73-.732.73h-23.17a.726.726 0 0 1-.558-1.193l3.02-3.579 1.872-2.224a.716.716 0 0 1 .558-.26h18.278c.403 0 .732.328.732.73ZM147.514 1.737v5.797c0 .401-.329.729-.732.729h-23.48a.717.717 0 0 0-.558.26l-3.708 4.387-2.095 2.478-4.024 4.771-2.096 2.479-7.738 9.158a.715.715 0 0 1-.558.26h-8.078c-.62 0-.961-.73-.552-1.199l25.47-29.59a.727.727 0 0 1 .552-.253h26.865c.403 0 .732.327.732.729v-.006Z"/><path d="M146.782 9.697h-5.809a.73.73 0 0 0-.732.729v20.9c0 .404.328.73.732.73h5.809a.73.73 0 0 0 .732-.73v-20.9a.73.73 0 0 0-.732-.73ZM138.629 15.388v5.797c0 .402-.329.73-.732.73h-23.17a.726.726 0 0 1-.558-1.193l3.02-3.579 1.872-2.224a.717.717 0 0 1 .558-.26h18.278c.403 0 .732.328.732.73ZM264.337 1.737v5.797c0 .401-.329.729-.732.729h-23.48a.717.717 0 0 0-.558.26l-3.707 4.387-2.096 2.478-4.024 4.771-2.096 2.479-7.737 9.158a.717.717 0 0 1-.558.26h-8.079c-.62 0-.961-.73-.552-1.199l25.47-29.59a.728.728 0 0 1 .552-.253h26.865c.403 0 .732.327.732.729v-.006Z"/><path d="M263.605 9.697h-5.809a.73.73 0 0 0-.732.729v20.9c0 .404.328.73.732.73h5.809a.73.73 0 0 0 .732-.73v-20.9a.73.73 0 0 0-.732-.73ZM255.452 15.388v5.797c0 .402-.329.73-.732.73h-23.17a.726.726 0 0 1-.558-1.193l3.02-3.579 1.872-2.224a.717.717 0 0 1 .558-.26h18.278c.403 0 .732.328.732.73Z"/></g><defs><clipPath id="clip0_203_21"><path fill="#fff" d="M0 0h307v37H0z"/></clipPath></defs></svg>