<svg width="1440" height="144" viewBox="0 0 1440 144" fill="none" xmlns="http://www.w3.org/2000/svg">
<g clip-path="url(#clip0_31_28)">
<path d="M0 0H1440V66.84H1399.79L1333.33 116.67L962.67 117L927.33 143.5L646.67 143L565.33 74.7H290.93L264.76 94.33H121.13L94.96 74.7H0V0Z" fill="#FFCA2B"/>
<path d="M70.056 27.152L61.544 50H57.224L65.736 27.152H70.056ZM83.2748 27.152L74.7628 50H70.4428L78.9548 27.152H83.2748ZM96.4935 27.152L87.9815 50H83.6615L92.1735 27.152H96.4935ZM144.002 27.664H148.29L140.994 50.032H134.242L129.762 36.272L125.282 50.032H118.498L111.234 27.664H115.49L121.442 45.936H122.306L128.258 27.664H131.234L137.186 45.936H138.05L144.002 27.664ZM171.305 31.728H155.561V36.784H170.473V40.88H155.561V45.936H171.305V50H151.497V27.664H171.305V31.728ZM179.811 45.936H195.555V50H175.747V27.664H179.811V45.936ZM213.479 45.936C215.143 45.936 216.647 44.944 217.319 43.44L221.063 45.072C219.751 48.08 216.775 50 213.479 50H205.863C201.287 50 197.607 46.32 197.607 41.744V35.92C197.607 31.376 201.287 27.664 205.863 27.664H213.479C217.127 27.664 220.327 30 221.383 33.488L217.511 34.704C216.967 32.912 215.335 31.728 213.479 31.728H205.863C203.559 31.728 201.671 33.616 201.671 35.92V41.744C201.671 44.048 203.559 45.936 205.863 45.936H213.479ZM237.324 27.664C243.148 27.664 247.884 32.4 247.884 38.192V39.472C247.884 45.296 243.148 50 237.324 50H234.252C228.428 50 223.724 45.296 223.724 39.472V38.192C223.724 32.368 228.428 27.664 234.252 27.664H237.324ZM243.788 39.472V38.192C243.788 34.64 240.908 31.728 237.324 31.728H234.252C230.668 31.728 227.788 34.64 227.788 38.192V39.472C227.788 43.056 230.668 45.936 234.252 45.936H237.324C240.908 45.936 243.788 43.056 243.788 39.472ZM280.222 27.664V50H276.158V34.96L267.262 50H264.926L256.03 34.96V50H251.966V27.664H256.414L266.078 43.984L275.742 27.664H280.222ZM305.117 31.728H289.373V36.784H304.285V40.88H289.373V45.936H305.117V50H285.309V27.664H305.117V31.728ZM321.609 27.664H343.593V31.728H334.633V50H330.537V31.728H321.609V27.664ZM358.324 27.664C364.148 27.664 368.884 32.4 368.884 38.192V39.472C368.884 45.296 364.148 50 358.324 50H355.252C349.428 50 344.724 45.296 344.724 39.472V38.192C344.724 32.368 349.428 27.664 355.252 27.664H358.324ZM364.788 39.472V38.192C364.788 34.64 361.908 31.728 358.324 31.728H355.252C351.668 31.728 348.788 34.64 348.788 38.192V39.472C348.788 43.056 351.668 45.936 355.252 45.936H358.324C361.908 45.936 364.788 43.056 364.788 39.472ZM385.015 27.664H406.999V31.728H398.039V50H393.943V31.728H385.015V27.664ZM428.456 27.664H432.52V50H428.456V40.816H414.248V50H410.184V27.664H414.248V36.72H428.456V27.664ZM457.43 31.728H441.686V36.784H456.598V40.88H441.686V45.936H457.43V50H437.622V27.664H457.43V31.728ZM491.361 27.664L501.057 50H496.641L494.625 45.392H480.193L478.177 50H473.761L483.457 27.664H491.361ZM481.953 41.296H492.865L488.705 31.728H486.113L481.953 41.296ZM521.979 27.664H526.075V50H521.787L508.155 33.744V50H504.091V27.664H508.347L521.979 43.92V27.664ZM546.705 27.664L556.401 50H551.985L549.969 45.392H535.537L533.521 50H529.105L538.801 27.664H546.705ZM537.297 41.296H548.209L544.049 31.728H541.457L537.297 41.296ZM577.322 27.664H581.418V50H577.13L563.498 33.744V50H559.434V27.664H563.69L577.322 43.92V27.664ZM584.609 27.664H606.593V31.728H597.633V50H593.537V31.728H584.609V27.664ZM621.892 27.664L631.589 50H627.173L625.157 45.392H610.725L608.709 50H604.293L613.989 27.664H621.892ZM612.485 41.296H623.397L619.237 31.728H616.645L612.485 41.296ZM662.878 27.664V50H658.814V34.96L649.918 50H647.582L638.686 34.96V50H634.622V27.664H639.07L648.734 43.984L658.398 27.664H662.878Z" fill="black"/>
</g>
<defs>
<clipPath id="clip0_31_28">
<rect width="1440" height="143.5" fill="white"/>
</clipPath>
</defs>
</svg>
