<svg width="124" height="140" viewBox="0 0 124 140" fill="none" xmlns="http://www.w3.org/2000/svg">
<mask id="path-2-inside-1_0_1" fill="white">
<path d="M41.5 55.5V41.5L61 61L54 68L41.5 55.5Z"/>
</mask>
<path d="M41.5 41.5L57.7635 25.2365L18.5 -14.0269L18.5 41.5H41.5ZM41.5 55.5H18.5V65.0269L25.2365 71.7635L41.5 55.5ZM54 68L37.7365 84.2635L54 100.527L70.2635 84.2635L54 68ZM61 61L77.2635 77.2635L93.5269 61L77.2635 44.7365L61 61ZM18.5 41.5V55.5H64.5V41.5H18.5ZM25.2365 71.7635L37.7365 84.2635L70.2635 51.7365L57.7635 39.2365L25.2365 71.7635ZM70.2635 84.2635L77.2635 77.2635L44.7365 44.7365L37.7365 51.7365L70.2635 84.2635ZM77.2635 44.7365L57.7635 25.2365L25.2365 57.7635L44.7365 77.2635L77.2635 44.7365Z" fill="#FFCA2B" mask="url(#path-2-inside-1_0_1)"/>
<path d="M58.2373 72.6257L58.2657 72.5963L58.2935 72.5664L77.5 51.9372V55.652L45.5 88.0422V85.8179L58.2373 72.6257Z" stroke="#FFCA2B" stroke-width="9"/>
<mask id="path-5-inside-2_0_1" fill="white">
<path d="M83 85V99L64.5 78.5L71.5 71.5L83 85Z"/>
</mask>
<path d="M83 99L68.1521 112.399L103 151.014V99H83ZM83 85H103V77.6363L98.2249 72.0307L83 85ZM71.5 71.5L86.7249 58.5307L72.6766 42.0392L57.3579 57.3579L71.5 71.5ZM64.5 78.5L50.3579 64.3579L36.9224 77.7933L49.6521 91.8993L64.5 78.5ZM103 99V85H63V99H103ZM98.2249 72.0307L86.7249 58.5307L56.2751 84.4693L67.7751 97.9693L98.2249 72.0307ZM57.3579 57.3579L50.3579 64.3579L78.6421 92.6421L85.6421 85.6421L57.3579 57.3579ZM49.6521 91.8993L68.1521 112.399L97.8479 85.6007L79.3479 65.1007L49.6521 91.8993Z" fill="#FFCA2B" mask="url(#path-5-inside-2_0_1)"/>
</svg>
