<svg width="122" height="48" viewBox="0 0 122 48" fill="none" xmlns="http://www.w3.org/2000/svg">
<g clip-path="url(#clip0_1_9)">
<path d="M115.887 28.7735V41.856H83.1361L65.3696 24L70.1192 19.2265L83.0564 6.22405H115.807V19.2265H121.92V0.0800719H80.5928L80.5131 0L61.4075 19.208L61.3892 19.2265L61 19.6207L60.6108 19.2265L60.5925 19.208L41.4869 0L41.4072 0.0800719H0.0796705V19.2265H6.19285V6.22405H38.9435L51.8808 19.2265L56.6304 24L38.8639 41.856H6.11318V28.7735H0V48H41.3949L41.5144 47.8799L41.5604 47.9261L60.62 28.7735L61 28.3916L61.38 28.7735L80.4396 47.9261L80.4856 47.8799L80.6051 48H122V28.7735H115.887Z" fill="#F2BE22"/>
</g>
<defs>
<clipPath id="clip0_1_9">
<rect width="122" height="48" fill="white"/>
</clipPath>
</defs>
</svg>
