<svg width="156" height="64" viewBox="0 0 156 64" fill="none" xmlns="http://www.w3.org/2000/svg">
<g clip-path="url(#clip0_38_45)">
<path d="M1 1V42.5769L23.7237 62.6867H154.695V1H1Z" fill="#181A19" stroke="#FFCA2B" stroke-width="3" stroke-miterlimit="10"/>
<path d="M44.752 25.296H32.944V29.088H44.128V32.16H32.944V35.952H44.752V39H29.896V22.248H44.752V25.296ZM57.2275 33.024L62.6755 39.024H58.6915L54.7315 34.632L50.7475 39.024H46.7875L52.2115 33.024L46.7875 27.048H50.7475L54.7315 31.416L58.6915 27.048H62.6755L57.2275 33.024ZM72.5849 27.048C75.3209 27.048 77.5529 29.28 77.5529 31.992V34.056C77.5529 36.792 75.3209 39.024 72.5849 39.024H70.4969C69.4409 39.024 68.4329 38.112 67.9529 37.56V44.16H65.0249V27.048H67.9529V28.488C68.4329 27.936 69.4409 27.048 70.4969 27.048H72.5849ZM74.6009 34.056V31.992C74.6009 30.888 73.7129 30 72.5849 30H69.9689C68.8649 30 67.9529 30.888 67.9529 31.992V34.056C67.9529 35.16 68.8649 36.072 69.9689 36.072H72.5849C73.7129 36.072 74.6009 35.16 74.6009 34.056ZM83.5154 39.024H80.5874V22.248H83.5154V39.024ZM94.0898 27.048C96.8258 27.048 99.0578 29.28 99.0578 31.992V34.056C99.0578 36.792 96.8258 39.024 94.0898 39.024H91.4738C88.7378 39.024 86.5298 36.792 86.5298 34.056V31.992C86.5298 29.28 88.7378 27.048 91.4738 27.048H94.0898ZM96.1058 34.056V31.992C96.1058 30.888 95.2178 30 94.0898 30H91.4738C90.3698 30 89.4578 30.888 89.4578 31.992V34.056C89.4578 35.16 90.3698 36.072 91.4738 36.072H94.0898C95.2178 36.072 96.1058 35.16 96.1058 34.056ZM107.504 27.048H108.464C110.264 27.048 111.848 28.2 112.4 29.904L109.592 30.816C109.424 30.312 108.992 30 108.464 30H106.712C105.776 30 104.984 30.768 104.984 31.728V39H102.056V27.048H104.984V28.608C105.44 27.984 106.4 27.048 107.504 27.048ZM126.856 31.704V33.936H117.256V34.368C117.256 35.304 118.024 36.072 118.96 36.072H122.2C122.872 36.072 123.472 35.688 123.76 35.088L126.424 36.312C125.656 37.944 124 39 122.2 39H118.96C116.392 39 114.328 36.936 114.328 34.368V31.704C114.328 29.136 116.392 27.048 118.96 27.048H122.2C124.768 27.048 126.856 29.136 126.856 31.704ZM117.304 31.344V31.56H123.88V31.344C123.712 30.576 123.016 30 122.2 30H118.96C118.144 30 117.448 30.576 117.304 31.344Z" fill="#FFCA2B"/>
</g>
<defs>
<clipPath id="clip0_38_45">
<rect width="156" height="64" fill="white"/>
</clipPath>
</defs>
</svg>
